<?xml version="1.0" standalone="no"?>
<!DOCTYPE svg PUBLIC "-//W3C//DTD SVG 20010904//EN"
 "http://www.w3.org/TR/2001/REC-SVG-20010904/DTD/svg10.dtd">
<svg version="1.0" xmlns="http://www.w3.org/2000/svg"
 width="1000.000000pt" height="1000.000000pt" viewBox="0 0 1000.000000 1000.000000"
 preserveAspectRatio="xMidYMid meet">

<g transform="translate(0.000000,1000.000000) scale(0.100000,-0.100000)"
fill="#000000" stroke="none">
<path d="M3530 8250 l-445 -5 -57 -28 c-74 -36 -147 -103 -181 -164 -61 -113
-57 108 -57 -3053 0 -3161 -4 -2940 57 -3053 34 -61 107 -128 181 -164 l57
-28 1915 0 1915 0 57 28 c74 36 147 103 181 164 61 113 57 -108 57 3053 0
3116 3 2936 -50 3040 -45 89 -155 177 -248 199 -51 13 -2542 20 -3382 11z
m3343 -244 c42 -17 83 -66 97 -114 14 -52 14 -5732 0 -5784 -14 -48 -55 -97
-97 -114 -48 -21 -3698 -21 -3746 0 -42 17 -83 66 -97 114 -14 52 -14 5732 0
5784 13 47 55 97 95 114 45 20 3700 20 3748 0z"/>
<path d="M3339 7647 c-18 -12 -44 -38 -57 -57 l-23 -34 3 -470 3 -471 24 -34
c13 -18 42 -42 65 -52 39 -18 102 -19 1646 -19 1544 0 1607 1 1646 19 23 10
52 34 65 52 l24 34 3 471 3 470 -23 34 c-13 19 -39 45 -57 57 l-34 23 -1627 0
-1627 0 -34 -23z m3171 -557 l0 -350 -1510 0 -1510 0 0 350 0 350 1510 0 1510
0 0 -350z"/>
<path d="M3429 6145 c-36 -19 -63 -78 -55 -119 4 -18 20 -46 37 -62 l30 -29
384 -3 c423 -3 429 -2 460 58 26 50 20 97 -19 136 l-34 34 -389 0 c-316 -1
-393 -3 -414 -15z"/>
<path d="M4574 6126 c-29 -29 -34 -41 -34 -80 0 -36 6 -52 29 -78 l29 -33 402
0 402 0 29 33 c23 26 29 42 29 78 0 39 -5 51 -34 80 l-34 34 -392 0 -392 0
-34 -34z"/>
<path d="M5734 6126 c-39 -39 -45 -86 -19 -136 31 -60 37 -61 460 -58 l384 3
30 29 c39 38 48 83 26 130 -32 66 -31 66 -461 66 l-386 0 -34 -34z"/>
<path d="M3341 5563 c-18 -9 -44 -33 -57 -53 l-25 -37 3 -364 c3 -411 1 -398
84 -439 38 -19 60 -20 375 -20 327 0 336 0 379 23 26 13 53 36 65 57 19 33 20
52 20 385 0 332 -1 352 -20 384 -11 19 -33 43 -48 55 -28 20 -40 21 -385 23
-317 3 -361 1 -391 -14z m609 -448 l0 -235 -230 0 -230 0 0 235 0 235 230 0
230 0 0 -235z"/>
<path d="M4499 5557 c-18 -12 -44 -38 -57 -57 l-23 -34 3 -357 c3 -343 4 -359
24 -385 11 -15 33 -37 48 -48 27 -20 39 -21 390 -21 l363 0 35 27 c68 52 69
56 66 447 -3 337 -4 351 -24 378 -11 15 -36 38 -54 51 -33 22 -36 22 -385 22
-350 0 -352 0 -386 -23z m619 -439 l-3 -233 -232 -3 -233 -2 0 235 0 235 235
0 235 0 -2 -232z"/>
<path d="M5776 5558 c-75 -44 -76 -47 -76 -444 0 -348 0 -351 23 -384 12 -18
35 -43 50 -54 27 -20 41 -21 375 -24 344 -3 347 -2 392 20 33 17 51 35 68 68
23 45 23 48 20 392 -3 332 -4 348 -24 374 -11 15 -33 37 -48 48 -26 20 -42 21
-384 24 -354 2 -357 2 -396 -20z m619 -443 l0 -230 -232 -3 -233 -2 0 235 0
235 233 -2 232 -3 0 -230z"/>
<path d="M3345 4400 c-82 -42 -80 -29 -83 -439 l-3 -364 25 -37 c46 -70 52
-71 450 -68 343 3 356 4 383 24 15 12 37 36 48 55 19 32 20 52 20 384 0 333
-1 352 -20 385 -12 21 -39 44 -65 58 -43 22 -52 22 -380 22 -316 0 -337 -1
-375 -20z m605 -445 l0 -235 -230 0 -230 0 0 235 0 235 230 0 230 0 0 -235z"/>
<path d="M4515 4406 c-37 -16 -70 -52 -84 -89 -7 -18 -11 -153 -11 -371 0
-340 0 -343 23 -377 12 -18 38 -44 57 -57 l34 -23 357 3 c343 3 359 4 385 24
15 11 37 33 48 48 20 27 21 39 21 390 l0 363 -27 35 c-51 67 -57 68 -435 68
-259 -1 -345 -4 -368 -14z m603 -453 l2 -233 -235 0 -235 0 0 235 0 235 233
-2 232 -3 3 -232z"/>
<path d="M5800 4409 c-14 -6 -36 -20 -48 -32 -54 -50 -52 -4 -52 -1002 0
-1025 -3 -970 64 -1018 30 -22 37 -22 392 -25 l360 -3 34 23 c18 13 43 36 54
51 21 28 21 33 24 955 l2 927 -22 45 c-17 33 -35 51 -68 68 -43 22 -51 22
-380 21 -197 0 -345 -4 -360 -10z m598 -1036 l2 -813 -235 0 -235 0 0 815 0
815 233 -2 232 -3 3 -812z"/>
<path d="M3370 3249 c-19 -6 -46 -20 -58 -32 -52 -48 -52 -51 -52 -429 0 -335
1 -355 20 -386 11 -18 34 -41 52 -52 31 -19 51 -20 386 -20 372 0 373 0 424
48 44 41 50 93 46 447 -3 357 -3 356 -76 405 l-35 25 -336 2 c-205 1 -350 -2
-371 -8z m580 -454 l0 -235 -230 0 -230 0 0 230 0 230 228 3 c125 1 228 3 230
5 1 1 2 -104 2 -233z"/>
<path d="M4527 3246 c-21 -8 -48 -22 -59 -33 -45 -40 -48 -62 -48 -424 0 -382
1 -390 70 -435 l37 -25 366 3 366 3 32 30 c58 55 59 63 59 428 0 325 -1 334
-22 377 -43 84 -45 85 -428 87 -265 2 -343 0 -373 -11z m593 -456 l0 -230
-235 0 -235 0 0 230 0 230 235 0 235 0 0 -230z"/>
<path d="M177 2362 c-22 -24 -21 -35 1 -55 25 -22 75 -21 95 1 23 25 21 38 -5
56 -30 21 -71 20 -91 -2z m77 -8 c24 -9 19 -33 -8 -40 -31 -7 -66 3 -66 21 0
21 41 32 74 19z"/>
<path d="M270 2245 l0 -25 -20 20 c-11 11 -33 20 -50 20 -23 0 -31 -5 -36 -24
-6 -25 1 -46 15 -46 4 0 7 10 7 23 -1 32 34 34 64 2 32 -34 40 -32 40 15 0 22
-4 40 -10 40 -5 0 -10 -11 -10 -25z"/>
<path d="M160 2141 c0 -22 5 -43 10 -46 6 -4 10 7 10 25 0 28 2 31 23 24 12
-3 34 -13 49 -20 31 -16 38 -17 38 -5 0 7 -108 61 -124 61 -3 0 -6 -18 -6 -39z"/>
<path d="M222 2068 c-5 -7 -12 -22 -14 -33 -4 -18 -6 -17 -18 8 -14 30 -33 38
-23 10 11 -31 46 -63 69 -63 23 0 54 24 54 41 0 39 -46 64 -68 37z m43 -34 c0
-10 -8 -20 -17 -22 -18 -3 -26 27 -11 42 12 11 28 0 28 -20z"/>
<path d="M220 1955 c-7 -8 -10 -22 -6 -30 9 -26 -14 -17 -26 10 -13 28 -31 35
-21 8 19 -55 75 -79 107 -47 19 18 20 28 6 55 -13 23 -43 25 -60 4z m45 -31
c0 -10 -8 -20 -17 -22 -18 -3 -26 27 -11 42 12 11 28 0 28 -20z"/>
<path d="M160 1831 c0 -22 5 -43 10 -46 6 -4 10 7 10 24 0 17 2 31 4 31 2 0
25 -9 51 -20 53 -23 55 -23 55 -11 0 7 -108 61 -124 61 -3 0 -6 -18 -6 -39z"/>
<path d="M222 1758 c-5 -7 -12 -22 -14 -33 -4 -18 -6 -17 -18 8 -14 30 -33 38
-23 10 11 -31 46 -63 69 -63 23 0 54 24 54 41 0 39 -46 64 -68 37z m43 -34 c0
-10 -8 -20 -17 -22 -18 -3 -26 27 -11 42 12 11 28 0 28 -20z"/>
<path d="M188 1653 c-19 -5 -34 -45 -23 -62 11 -18 22 -12 21 12 -1 32 34 34
64 2 32 -34 40 -32 40 15 0 44 -20 56 -21 13 0 -16 -3 -22 -6 -15 -7 17 -54
39 -75 35z"/>
<path d="M234 1549 c-4 -6 -20 -8 -40 -4 -47 8 -45 -17 3 -50 47 -32 63 -32
63 0 0 16 6 25 15 25 21 0 19 17 -4 30 -25 13 -28 13 -37 -1z m-5 -28 c7 -5
12 -14 9 -21 -2 -8 -11 -5 -28 9 -17 14 -20 20 -10 21 8 0 21 -4 29 -9z"/>
<path d="M190 1449 c0 -5 -4 -7 -10 -4 -5 3 -10 2 -10 -4 0 -5 6 -12 13 -15 9
-5 9 -7 0 -12 -10 -4 -9 -9 2 -20 8 -9 20 -12 26 -8 6 3 14 1 18 -5 5 -8 15
-9 31 -3 19 7 21 10 7 15 -23 9 -22 28 1 20 12 -4 11 0 -7 17 -18 18 -25 20
-32 9 -6 -11 -9 -10 -15 4 -7 19 -24 23 -24 6z m45 -39 c-3 -5 -10 -10 -16
-10 -5 0 -9 5 -9 10 0 6 7 10 16 10 8 0 12 -4 9 -10z"/>
<path d="M140 1280 c0 -6 38 -10 95 -10 57 0 95 4 95 10 0 6 -38 10 -95 10
-57 0 -95 -4 -95 -10z"/>
<path d="M261 1189 c-22 -18 -25 -19 -42 -3 -11 10 -22 14 -27 10 -4 -4 4 -16
17 -27 l23 -19 -46 0 c-34 0 -46 -4 -46 -15 0 -12 15 -15 75 -15 60 0 75 3 75
15 0 9 -9 15 -22 15 l-23 0 24 19 c13 10 22 23 20 29 -2 6 -14 3 -28 -9z"/>
<path d="M190 1081 c0 -27 27 -51 55 -51 24 0 45 25 45 54 0 25 -18 19 -22 -6
-2 -17 -10 -23 -28 -23 -18 0 -26 6 -28 23 -4 27 -22 30 -22 3z"/>
<path d="M206 994 c-19 -18 -20 -28 -6 -55 21 -39 90 -16 90 30 0 16 -30 41
-50 41 -10 0 -26 -7 -34 -16z m59 -29 c0 -22 -31 -33 -47 -17 -17 17 -1 44 24
40 15 -2 23 -10 23 -23z"/>
<path d="M190 900 c0 -5 -7 -10 -15 -10 -8 0 -15 -4 -15 -10 0 -5 6 -10 14
-10 8 0 17 -6 20 -12 5 -10 7 -10 12 0 3 6 21 12 40 12 34 0 56 22 39 38 -4 4
-10 1 -12 -5 -5 -15 -63 -18 -63 -3 0 6 -4 10 -10 10 -5 0 -10 -4 -10 -10z"/>
<path d="M212 810 c-19 -34 -35 -34 -40 -2 -5 30 -22 28 -22 -2 0 -50 54 -61
77 -16 17 34 38 32 38 -3 -1 -32 18 -31 23 2 8 53 -49 69 -76 21z"/>
<path d="M200 675 c-22 -26 3 -65 40 -65 35 0 58 36 45 67 -7 16 -9 15 -13 -7
-6 -40 -22 -48 -22 -12 0 25 -4 32 -19 32 -10 0 -24 -7 -31 -15z m30 -26 c0
-11 -4 -17 -10 -14 -5 3 -10 13 -10 21 0 8 5 14 10 14 6 0 10 -9 10 -21z"/>
<path d="M197 561 c-8 -22 -18 -31 -34 -31 -14 0 -23 -6 -23 -15 0 -23 138
-22 147 2 10 26 -19 68 -50 71 -24 3 -30 -2 -40 -27z m57 3 c28 -11 18 -34
-14 -34 -18 0 -30 5 -30 13 0 25 15 32 44 21z"/>
<path d="M206 464 c-19 -18 -20 -28 -6 -55 21 -39 90 -16 90 30 0 16 -30 41
-50 41 -10 0 -26 -7 -34 -16z m59 -29 c0 -22 -31 -33 -47 -17 -17 17 -1 44 24
40 15 -2 23 -10 23 -23z"/>
<path d="M140 350 c0 -5 11 -10 25 -10 15 0 25 -6 25 -14 0 -45 73 -62 92 -22
20 45 6 56 -72 56 -40 0 -70 -4 -70 -10z m128 -27 c-2 -12 -12 -18 -28 -18
-16 0 -26 6 -28 18 -3 13 3 17 28 17 25 0 31 -4 28 -17z"/>
<path d="M220 246 c-36 -13 -66 -29 -68 -37 -1 -9 20 -21 68 -35 38 -12 70
-17 70 -12 0 6 -9 12 -20 15 -14 4 -20 14 -20 34 0 22 5 29 20 29 11 0 20 7
20 15 0 8 -1 15 -2 14 -2 0 -32 -11 -68 -23z m8 -51 c-7 -7 -48 7 -48 15 0 15
45 16 48 2 2 -8 2 -15 0 -17z"/>
</g>
</svg>
