<?xml version="1.0" standalone="no"?>
<!DOCTYPE svg PUBLIC "-//W3C//DTD SVG 20010904//EN"
 "http://www.w3.org/TR/2001/REC-SVG-20010904/DTD/svg10.dtd">
<svg version="1.0" xmlns="http://www.w3.org/2000/svg"
 width="1300.000000pt" height="1390.000000pt" viewBox="0 0 1300.000000 1390.000000"
 preserveAspectRatio="xMidYMid meet">

<g transform="translate(0.000000,1390.000000) scale(0.100000,-0.100000)"
fill="#000000" stroke="none">
<path d="M1423 10855 c-209 -57 -353 -242 -353 -455 1 -135 42 -234 139 -331
154 -154 364 -183 560 -79 104 56 207 191 227 298 l6 32 760 0 759 0 416 -416
416 -415 -126 -128 c-156 -157 -182 -204 -182 -326 0 -133 12 -153 211 -356
224 -228 225 -231 140 -428 -19 -46 -46 -95 -58 -109 -51 -54 -64 -57 -338
-62 -242 -5 -257 -7 -302 -29 -63 -31 -121 -88 -155 -153 -26 -50 -28 -62 -31
-203 -4 -142 -3 -151 17 -169 19 -17 21 -30 21 -118 0 -93 -1 -98 -21 -98 -20
0 -21 -3 -17 -177 3 -171 4 -180 31 -230 37 -71 88 -119 161 -154 l61 -29 235
0 c314 -1 325 -6 400 -179 80 -189 79 -193 -144 -420 -200 -204 -211 -223
-211 -361 1 -120 24 -161 183 -323 l126 -127 -414 -415 -415 -415 -761 0 -762
0 -6 34 c-4 19 -22 66 -42 104 -112 224 -389 315 -623 205 -74 -35 -179 -140
-214 -214 -88 -188 -52 -395 94 -541 181 -182 477 -181 659 2 58 59 114 155
126 216 l6 34 791 0 791 0 441 440 440 439 105 -102 c133 -130 173 -151 290
-152 138 0 158 11 351 202 222 219 228 221 428 134 173 -75 174 -77 181 -391
5 -240 6 -246 32 -295 34 -66 87 -119 151 -153 l52 -27 445 0 445 0 45 24 c74
40 117 80 152 144 l33 62 5 230 c7 311 5 307 200 386 124 51 181 60 236 38 16
-5 96 -77 179 -159 183 -181 208 -195 340 -195 82 0 95 3 151 33 37 20 95 68
154 127 l95 95 204 -202 c112 -112 201 -198 197 -192 -6 12 54 64 73 64 13 0
25 45 16 59 -11 18 -35 12 -35 -9 0 -17 -7 -20 -40 -20 -47 0 -51 13 -19 70
l21 37 -152 152 -153 152 130 132 c159 163 177 194 177 322 1 131 -14 158
-183 330 -76 77 -146 154 -155 172 -28 56 -20 104 39 245 61 145 70 158 123
185 31 15 72 19 257 23 215 5 221 6 272 33 64 33 117 86 151 152 26 48 27 58
30 230 3 123 7 182 15 187 9 6 9 8 0 8 -6 0 -15 -4 -18 -10 -19 -31 -64 6 -65
53 0 26 10 40 58 75 16 12 21 23 17 35 -9 21 -25 23 -25 2 0 -9 -9 -15 -25
-15 -27 0 -30 6 -16 43 6 14 21 27 36 31 l27 7 -4 147 c-3 136 -5 151 -30 197
-34 66 -87 119 -151 152 -51 27 -57 28 -278 33 l-225 5 -43 28 c-44 29 -52 42
-121 209 -41 100 -49 153 -30 204 6 15 76 94 155 174 161 164 185 202 193 311
5 72 -14 149 -51 204 -11 17 -74 85 -141 152 l-120 123 415 415 416 415 760 0
761 0 6 -32 c20 -107 123 -242 227 -298 203 -108 426 -71 578 96 210 229 138
596 -143 734 -218 107 -484 27 -610 -183 -19 -32 -40 -81 -47 -108 l-13 -49
-790 0 -790 0 -441 -440 -440 -440 -95 95 c-58 58 -117 107 -154 127 -55 30
-69 33 -146 33 -136 0 -159 -13 -341 -191 -86 -84 -168 -158 -183 -164 -55
-21 -111 -11 -236 39 -196 80 -193 74 -200 386 -5 226 -6 231 -33 282 -34 66
-83 116 -150 151 l-52 27 -445 0 -445 0 -53 -28 c-65 -34 -122 -92 -153 -155
-23 -44 -24 -61 -29 -292 -6 -314 -7 -314 -180 -390 -135 -59 -147 -62 -205
-49 -46 11 -65 27 -220 179 -198 194 -217 205 -355 205 -77 0 -91 -3 -146 -33
-37 -20 -96 -69 -154 -127 l-95 -95 -440 440 -441 440 -790 0 -790 0 -12 48
c-16 59 -80 167 -124 209 -114 109 -297 157 -445 118z m251 -179 c190 -93 233
-341 86 -493 -66 -67 -119 -88 -225 -88 -74 0 -97 4 -133 23 -68 36 -126 101
-152 168 -64 172 29 356 210 415 48 16 156 3 214 -25z m9922 1 c64 -33 137
-113 158 -174 84 -245 -152 -481 -397 -397 -61 21 -141 94 -174 158 -86 170
14 388 202 437 57 15 156 4 211 -24z m-4669 -463 c19 -9 46 -33 61 -52 l27
-35 6 -231 c6 -251 12 -277 71 -361 39 -56 103 -96 243 -152 114 -46 125 -48
215 -48 86 0 100 3 147 29 30 17 105 82 180 158 70 71 146 140 169 153 47 29
107 33 157 11 41 -18 572 -552 586 -589 17 -43 13 -96 -9 -141 -11 -23 -79
-99 -150 -171 -153 -152 -181 -197 -188 -308 -5 -79 1 -99 79 -286 54 -129
109 -195 201 -237 62 -28 66 -28 272 -31 233 -4 257 -9 304 -71 l27 -35 3
-403 c3 -450 3 -449 -64 -500 l-37 -29 -221 -5 c-216 -6 -222 -6 -284 -34 -92
-42 -147 -107 -201 -237 -77 -184 -83 -207 -79 -284 6 -112 34 -159 186 -311
72 -72 140 -146 151 -165 23 -37 27 -101 10 -146 -14 -37 -545 -571 -586 -589
-47 -20 -112 -17 -152 7 -19 11 -95 81 -168 154 -77 75 -157 145 -186 161 -47
26 -61 29 -147 29 -92 0 -99 -2 -230 -55 -161 -65 -220 -112 -266 -213 -28
-61 -29 -65 -34 -293 l-5 -231 -27 -35 c-53 -69 -50 -69 -501 -66 l-404 3 -35
27 c-63 48 -67 68 -70 329 -3 232 -4 235 -31 294 -43 93 -103 142 -249 204
-137 59 -199 73 -275 61 -88 -15 -136 -48 -298 -208 -88 -87 -169 -159 -189
-167 -44 -19 -97 -19 -139 -1 -41 18 -573 552 -587 589 -14 40 -13 92 5 133 9
21 80 102 171 194 86 87 165 171 175 187 30 47 52 150 44 207 -8 64 -96 279
-133 325 -34 43 -110 96 -160 112 -22 7 -141 14 -288 18 l-251 6 -35 27 c-69
53 -69 50 -66 501 l3 404 28 36 c15 20 38 42 50 49 15 9 99 15 272 19 146 4
265 11 287 18 54 17 128 70 164 117 41 54 122 259 130 328 5 41 1 71 -14 123
-25 79 -49 110 -240 299 -70 69 -128 137 -137 157 -19 45 -19 98 -1 140 18 41
552 573 589 587 40 14 92 13 133 -5 21 -8 99 -78 187 -166 161 -160 210 -194
301 -209 75 -12 137 2 277 61 150 64 212 117 249 214 21 55 24 81 29 301 l6
241 27 35 c52 68 49 68 486 68 345 0 398 -2 429 -16z m-5255 -5532 c60 -30
119 -89 149 -150 19 -38 24 -63 23 -132 0 -72 -4 -93 -26 -135 -31 -60 -86
-114 -148 -146 -37 -20 -60 -24 -130 -24 -73 0 -92 4 -136 27 -65 34 -137 114
-158 175 -53 154 28 334 176 392 72 29 184 25 250 -7z"/>
<path d="M6330 8684 c-502 -80 -922 -459 -1051 -949 -158 -600 118 -1216 671
-1495 527 -265 1160 -143 1554 299 143 161 236 338 293 560 25 97 28 122 28
296 0 151 -4 206 -19 270 -121 518 -498 897 -1001 1006 -124 27 -350 33 -475
13z m386 -159 c483 -82 854 -450 940 -930 18 -104 18 -287 -1 -395 -61 -348
-294 -658 -615 -820 -363 -182 -796 -155 -1140 72 -82 54 -217 182 -280 267
-346 462 -289 1109 134 1509 258 244 618 355 962 297z"/>
<path d="M1419 7856 c-205 -57 -349 -245 -349 -456 0 -256 212 -470 465 -470
207 0 396 139 453 332 l17 58 719 0 c560 0 717 3 708 12 -29 29 -8 89 38 113
41 21 38 34 -7 32 -21 -1 -358 0 -749 1 l-712 2 -6 33 c-9 51 -60 148 -102
196 -112 129 -314 191 -475 147z m256 -179 c60 -30 114 -85 146 -147 20 -37
24 -60 24 -130 0 -73 -4 -92 -27 -135 -32 -60 -87 -114 -148 -146 -64 -34
-194 -34 -262 0 -136 67 -208 224 -168 367 25 90 113 181 203 210 64 21 171
13 232 -19z"/>
<path d="M11343 7855 c-84 -23 -153 -63 -215 -125 -59 -59 -112 -152 -124
-217 l-6 -33 -724 0 -724 0 0 -80 0 -80 723 0 722 0 17 -58 c33 -113 125 -224
230 -278 240 -122 520 -30 639 211 35 71 42 94 46 167 9 145 -29 256 -124 358
-115 125 -298 178 -460 135z m251 -175 c233 -112 234 -447 2 -559 -149 -73
-334 -9 -414 143 -23 44 -27 63 -27 136 0 70 4 93 24 130 42 81 115 143 201
171 46 15 164 4 214 -21z"/>
<path d="M3483 7409 c-16 -16 -17 -45 -2 -55 17 -10 26 8 20 39 -5 23 -8 26
-18 16z"/>
<path d="M9483 7409 c-16 -16 -17 -45 -2 -55 17 -10 26 8 20 39 -5 23 -8 26
-18 16z"/>
<path d="M11346 4859 c-71 -17 -174 -79 -228 -138 -52 -57 -103 -150 -114
-208 l-6 -33 -760 0 -759 0 -91 90 c-50 50 -95 90 -100 90 -15 0 -45 34 -53
58 -10 33 -20 18 -16 -24 3 -34 2 -34 -38 -34 l-41 0 0 78 c-1 52 -5 83 -15
96 -14 18 -15 10 -15 -76 0 -79 -3 -97 -15 -100 -10 -2 44 -62 153 -170 l168
-168 790 0 789 0 17 -58 c49 -165 203 -298 379 -325 323 -50 602 252 528 572
-37 163 -187 313 -350 350 -53 13 -170 12 -223 0z m229 -170 c151 -56 233
-238 178 -393 -23 -63 -92 -140 -157 -174 -44 -23 -63 -27 -136 -26 -69 0 -94
4 -130 23 -61 31 -116 86 -148 146 -23 43 -27 62 -27 135 0 73 4 92 27 135 33
61 52 84 99 118 80 60 194 74 294 36z"/>
<path d="M9007 4807 c-21 -33 -19 -70 4 -75 20 -4 27 21 19 68 l-5 34 -18 -27z"/>
<path d="M0 450 l0 -450 6500 0 6500 0 0 450 0 450 -6500 0 -6500 0 0 -450z
m780 50 l0 -200 -35 0 -35 0 0 200 0 200 35 0 35 0 0 -200z m-115 105 c24 -23
25 -30 25 -149 0 -68 3 -131 6 -140 5 -13 -1 -16 -30 -16 -27 0 -36 4 -36 17
0 15 -2 14 -20 -2 -22 -20 -63 -23 -85 -5 -8 6 -17 28 -21 47 -9 50 15 94 70
129 38 23 46 34 44 54 -4 31 -32 33 -36 3 -3 -19 -10 -23 -38 -23 -31 0 -34 2
-34 30 0 46 39 80 90 80 30 0 47 -6 65 -25z m273 19 c41 -11 52 -51 52 -194
l0 -130 -29 0 c-16 0 -31 6 -34 13 -4 10 -7 10 -18 0 -18 -18 -74 -16 -93 3
-21 20 -21 93 -1 122 9 12 36 36 61 53 34 23 44 36 42 52 -4 29 -30 28 -43 0
-7 -17 -18 -23 -44 -23 -32 0 -33 1 -27 33 11 59 66 89 134 71z m234 -13 c12
-19 12 -19 36 0 30 23 55 24 76 3 13 -13 16 -42 16 -165 l0 -149 -30 0 -30 0
0 113 c0 123 -6 157 -25 157 -21 0 -25 -25 -25 -151 l0 -119 -35 0 -34 0 -3
133 c-3 109 -6 132 -18 132 -12 0 -15 -23 -18 -132 l-3 -133 -34 0 -35 0 0
160 0 160 35 0 c21 0 35 -5 35 -12 0 -8 6 -6 17 5 23 23 60 22 75 -2z m220
-121 c3 -121 4 -125 26 -128 22 -3 22 -3 22 127 0 80 4 131 10 132 59 7 55 20
58 -166 2 -94 0 -184 -3 -201 -7 -39 -38 -54 -110 -54 -54 0 -55 0 -55 30 0
27 3 30 34 30 49 0 66 9 66 35 0 23 -1 23 -30 9 -36 -18 -66 -6 -80 32 -6 14
-10 83 -10 154 l0 129 28 3 c15 2 30 1 34 -2 4 -3 9 -62 10 -130z m9793 90 c0
-27 -4 -50 -10 -50 -5 0 -10 23 -10 50 0 28 5 50 10 50 6 0 10 -22 10 -50z
m470 0 c0 -27 -4 -50 -10 -50 -5 0 -10 23 -10 50 0 28 5 50 10 50 6 0 10 -22
10 -50z m93 38 c7 -7 12 -24 12 -38 0 -34 -17 -50 -52 -50 -27 0 -28 2 -28 50
0 48 1 50 28 50 15 0 33 -5 40 -12z m160 -14 c2 -11 -4 -27 -13 -34 -21 -17
-19 -28 8 -33 16 -3 13 -5 -10 -6 -38 -1 -41 8 -13 34 27 25 27 59 0 52 -11
-3 -17 -1 -14 4 10 17 39 5 42 -17z m88 17 c-37 -8 -55 -34 -40 -58 16 -27 54
-29 54 -5 0 11 -6 23 -12 25 -8 3 -6 6 5 6 12 1 17 -7 17 -29 0 -26 -4 -30
-28 -30 -35 0 -52 16 -52 52 0 30 22 48 60 47 23 -1 23 -2 -4 -8z m97 -6 c4
-8 2 -17 -4 -21 -6 -4 -6 -11 2 -20 17 -21 3 -46 -23 -42 -19 2 -23 10 -24 43
-1 22 0 43 3 48 7 13 41 8 46 -8z m43 -22 l10 -38 10 33 c12 43 26 44 38 2
l10 -35 10 38 c5 20 13 37 17 37 10 0 -15 -91 -26 -93 -5 -1 -13 13 -17 31 -5
17 -11 32 -13 32 -2 0 -8 -15 -13 -32 -4 -18 -12 -32 -17 -31 -11 2 -36 93
-26 93 4 0 12 -17 17 -37z m162 25 c29 -29 3 -98 -33 -84 -15 5 -22 76 -8 89
10 11 28 8 41 -5z m90 5 c-14 -3 -18 -15 -18 -49 0 -24 -4 -44 -10 -44 -5 0
-10 20 -10 44 0 34 -4 46 -17 49 -10 3 2 5 27 5 25 0 37 -2 28 -5z m42 -13 c0
-30 47 -28 53 3 2 12 4 -3 4 -33 0 -30 -2 -43 -4 -27 -3 21 -10 27 -29 27 -19
0 -24 -5 -24 -25 0 -14 -4 -25 -10 -25 -5 0 -10 23 -10 50 0 28 5 50 10 50 6
0 10 -9 10 -20z m-1113 -45 l1 -40 -6 35 c-4 22 -13 35 -22 35 -9 0 -17 -13
-21 -35 l-6 -35 -2 38 c-1 45 -27 52 -37 10 -10 -48 -12 -49 -13 -7 l-1 41 53
-1 52 -1 2 -40z m81 4 c3 -34 1 -36 -25 -35 -35 1 -46 35 -14 43 26 7 27 20 4
27 -11 3 -7 4 7 3 21 -2 25 -8 28 -38z m80 -16 c-3 -54 -5 -58 -28 -60 -25 -3
-25 -3 -2 7 12 5 22 14 22 19 0 5 -10 11 -22 13 -15 2 -24 11 -26 26 -5 36 5
52 33 52 25 0 26 -2 23 -57z m90 35 c3 -13 -3 -18 -22 -18 -32 0 -34 -17 -3
-30 22 -10 22 -10 -3 -7 -26 2 -38 32 -26 63 8 21 50 14 54 -8z m232 12 c0 -5
-4 -10 -10 -10 -5 0 -10 5 -10 10 0 6 5 10 10 10 6 0 10 -4 10 -10z m0 -60 c0
-5 -4 -10 -10 -10 -5 0 -10 5 -10 10 0 6 5 10 10 10 6 0 10 -4 10 -10z m-40
-190 c0 -47 -3 -60 -15 -60 -12 0 -15 13 -15 60 0 47 3 60 15 60 12 0 15 -13
15 -60z m-580 10 c0 -11 5 -20 10 -20 6 0 10 9 10 21 0 29 32 21 41 -11 l6
-25 8 28 c7 28 25 38 25 13 0 -27 -22 -76 -35 -76 -7 0 -16 15 -20 33 l-8 32
-6 -30 c-9 -44 -33 -37 -47 13 -11 35 -11 42 2 42 8 0 14 -9 14 -20z m140 0
c0 -11 5 -20 10 -20 6 0 10 9 10 21 0 29 32 21 41 -11 l6 -25 8 28 c11 42 28
33 20 -10 -8 -46 -12 -53 -29 -53 -8 0 -17 15 -21 33 l-8 32 -6 -30 c-9 -44
-33 -37 -47 13 -11 35 -11 42 2 42 8 0 14 -9 14 -20z m140 0 c0 -11 5 -20 10
-20 6 0 10 9 10 21 0 29 32 21 41 -11 l6 -25 8 28 c7 28 25 38 25 13 0 -27
-22 -76 -35 -76 -7 0 -16 15 -20 33 l-7 32 -10 -33 c-12 -43 -29 -36 -45 16
-10 35 -9 42 3 42 8 0 14 -9 14 -20z m235 8 c2 -7 6 -27 8 -44 5 -30 4 -31
-32 -30 -31 1 -36 4 -36 26 0 17 7 26 25 31 24 7 24 7 3 8 -13 1 -23 6 -23 11
0 15 50 12 55 -2z m153 -5 c5 -10 9 -29 7 -43 -1 -20 -7 -24 -36 -25 -30 0
-34 3 -34 25 0 17 7 26 25 31 24 7 24 7 3 8 -31 1 -29 21 2 21 13 0 28 -8 33
-17z m162 -4 c12 -22 7 -62 -8 -67 -8 -2 -12 9 -12 32 0 25 -4 36 -15 36 -10
0 -15 -11 -15 -35 0 -44 -18 -46 -22 -3 -4 46 -28 49 -28 4 0 -25 -4 -36 -15
-36 -11 0 -15 12 -15 44 l0 43 60 0 c48 0 63 -4 70 -18z m55 -6 l8 -28 10 28
c13 33 42 38 31 5 -19 -61 -45 -108 -59 -108 -18 0 -20 17 -3 22 10 4 9 16 -4
56 -13 41 -13 52 -3 52 7 0 16 -12 20 -27z m175 18 c0 -5 -9 -11 -20 -14 -11
-3 -20 -13 -20 -22 0 -9 9 -19 20 -22 23 -6 27 -23 6 -23 -31 0 -46 13 -46 39
0 15 5 32 12 39 14 14 48 16 48 3z m90 -5 c28 -35 -11 -93 -47 -70 -36 22 -23
84 17 84 10 0 23 -7 30 -14z m162 -21 c9 -33 4 -55 -12 -55 -5 0 -10 16 -10
35 0 24 -5 35 -15 35 -10 0 -15 -11 -15 -35 0 -44 -18 -46 -22 -3 -4 46 -28
49 -28 4 0 -25 -4 -36 -15 -36 -11 0 -15 12 -15 44 l0 44 62 -2 c60 -1 62 -2
70 -31z m-891 -48 c-13 -13 -26 -3 -16 12 3 6 11 8 17 5 6 -4 6 -10 -1 -17z
m550 0 c-13 -13 -26 -3 -16 12 3 6 11 8 17 5 6 -4 6 -10 -1 -17z"/>
<path d="M592 427 c-26 -27 -28 -55 -7 -63 24 -9 42 12 43 51 2 41 -6 44 -36
12z"/>
<path d="M893 438 c-30 -32 -31 -78 -3 -78 25 0 32 17 28 65 l-3 37 -22 -24z"/>
<path d="M11700 580 c0 -33 3 -41 16 -38 26 5 41 35 28 56 -6 9 -19 18 -28 20
-13 3 -16 -5 -16 -38z"/>
<path d="M12057 614 c-8 -8 1 -24 14 -24 5 0 9 7 9 15 0 15 -12 20 -23 9z"/>
<path d="M12055 570 c-10 -17 12 -37 25 -24 8 8 6 15 -4 23 -10 9 -16 9 -21 1z"/>
<path d="M12264 606 c-8 -21 -1 -59 13 -63 6 -2 14 5 18 16 12 40 -17 84 -31
47z"/>
<path d="M11350 555 c0 -8 7 -15 15 -15 8 0 15 7 15 15 0 8 -7 15 -15 15 -8 0
-15 -7 -15 -15z"/>
<path d="M11434 586 c-8 -22 3 -49 19 -43 6 2 12 14 12 27 0 27 -22 39 -31 16z"/>
<path d="M11525 590 c-3 -5 3 -10 15 -10 12 0 18 5 15 10 -3 6 -10 10 -15 10
-5 0 -12 -4 -15 -10z"/>
<path d="M11657 333 c-12 -11 -8 -23 8 -23 8 0 15 7 15 15 0 16 -12 20 -23 8z"/>
<path d="M11807 333 c-12 -11 -8 -23 8 -23 8 0 15 7 15 15 0 16 -12 20 -23 8z"/>
<path d="M12283 344 c-8 -21 13 -42 28 -27 13 13 5 43 -11 43 -6 0 -13 -7 -17
-16z"/>
</g>
</svg>
