<?xml version="1.0" standalone="no"?>
<!DOCTYPE svg PUBLIC "-//W3C//DTD SVG 20010904//EN"
 "http://www.w3.org/TR/2001/REC-SVG-20010904/DTD/svg10.dtd">
<svg version="1.0" xmlns="http://www.w3.org/2000/svg"
 width="1200.000000pt" height="1200.000000pt" viewBox="0 0 1200.000000 1200.000000"
 preserveAspectRatio="xMidYMid meet">

<g transform="translate(0.000000,1200.000000) scale(0.100000,-0.100000)"
fill="#000000" stroke="none">
<path d="M5750 10553 c-607 -45 -1122 -174 -1638 -410 -252 -115 -358 -174
-608 -335 -435 -282 -838 -662 -1160 -1093 -475 -635 -760 -1343 -871 -2162
-25 -184 -27 -224 -27 -563 0 -344 1 -377 27 -570 72 -534 207 -986 427 -1435
237 -483 490 -837 879 -1226 266 -265 438 -407 716 -591 600 -395 1211 -619
1980 -725 172 -23 745 -29 960 -9 663 61 1286 261 1875 601 570 329 1096 817
1475 1370 420 612 686 1334 776 2110 20 173 23 633 5 845 -82 988 -477 1918
-1127 2649 -367 414 -794 751 -1277 1011 -575 308 -1205 486 -1878 530 -139 9
-432 11 -534 3z m325 -311 c83 -28 162 -80 253 -166 314 -300 583 -907 777
-1761 52 -227 103 -511 94 -520 -7 -7 -153 -21 -434 -42 -373 -28 -1179 -25
-1570 5 -159 13 -339 30 -399 38 -61 8 -116 14 -124 14 -18 0 -13 40 35 285
167 852 423 1515 722 1875 55 65 160 165 208 198 51 35 154 81 204 92 59 12
169 4 234 -18z m-865 -90 c0 -5 -10 -17 -21 -28 -38 -33 -195 -280 -260 -407
-233 -452 -398 -979 -530 -1692 -17 -93 -32 -171 -33 -171 -2 -3 -311 55 -411
77 -129 28 -392 95 -475 120 -163 49 -320 104 -320 111 0 15 167 344 225 443
420 717 995 1240 1635 1487 187 72 190 73 190 60z m1515 -17 c76 -24 245 -95
333 -139 291 -146 537 -329 803 -595 248 -249 400 -445 594 -766 62 -103 245
-464 259 -511 6 -19 -6 -24 -151 -67 -87 -25 -225 -62 -308 -82 -82 -19 -166
-40 -185 -45 -53 -14 -538 -100 -567 -100 -6 0 -18 40 -28 98 -67 391 -169
812 -267 1112 -143 437 -343 844 -524 1067 -38 46 -42 59 -16 48 9 -4 35 -13
57 -20z m1220 -330 c184 -95 257 -137 405 -233 409 -267 781 -614 1076 -1004
41 -53 74 -101 74 -106 0 -13 -29 -31 -171 -104 -117 -61 -311 -148 -328 -148
-5 0 -19 24 -31 53 -59 139 -188 385 -311 592 -38 65 -168 254 -233 340 -159
211 -374 442 -556 598 -58 49 -109 94 -115 99 -19 17 39 -9 190 -87z m-4085
-120 c0 -3 -39 -44 -86 -92 -324 -331 -640 -790 -830 -1207 -25 -56 -50 -105
-55 -110 -14 -16 -369 161 -369 183 0 22 197 268 342 429 262 287 564 533 958
780 38 24 40 24 40 17z m-1448 -1506 c28 -16 121 -65 207 -107 l156 -77 -37
-110 c-182 -529 -296 -1138 -310 -1660 l-3 -90 -347 -3 -348 -2 0 32 c0 89 33
392 60 545 74 430 193 795 387 1183 105 210 166 320 180 320 3 0 28 -14 55
-31z m7286 -11 c12 -24 34 -65 50 -93 61 -107 202 -393 202 -410 0 -3 9 -24
20 -48 111 -241 243 -729 284 -1054 21 -163 39 -400 32 -418 -5 -13 -62 -15
-428 -13 l-423 3 -7 135 c-7 141 -42 505 -58 600 -42 254 -109 564 -148 690
-47 150 -114 356 -118 367 -3 6 17 20 48 32 122 46 407 186 473 230 42 29 48
27 73 -21z m-6433 -351 c186 -59 294 -90 445 -126 147 -34 453 -97 525 -107
96 -13 93 -9 79 -116 -14 -101 -50 -485 -64 -683 -5 -66 -12 -240 -16 -388
l-7 -267 -756 2 -756 3 3 80 c20 529 103 992 269 1502 l56 171 41 -13 c23 -7
104 -33 181 -58z m5620 -142 c53 -162 123 -434 159 -620 50 -264 96 -667 96
-857 l0 -68 -755 0 -755 0 0 113 c0 233 -49 925 -84 1187 -8 58 -11 108 -8
111 4 4 86 18 182 33 310 47 787 158 1035 241 53 18 71 21 77 12 4 -7 27 -76
53 -152z m-4050 -175 c677 -75 1662 -78 2285 -5 63 7 118 10 121 6 24 -23 82
-729 95 -1138 l7 -233 -1413 0 -1413 0 6 248 c7 247 9 284 28 547 12 161 57
584 64 595 3 5 13 6 23 4 9 -2 98 -13 197 -24z m-2402 -1842 c14 -390 105
-926 224 -1318 35 -115 104 -321 114 -342 8 -14 -15 -29 -148 -96 -87 -44
-182 -93 -211 -111 -29 -17 -55 -31 -57 -31 -9 0 -119 197 -189 341 -189 386
-311 767 -381 1189 -23 141 -55 438 -55 518 l0 32 348 0 349 0 6 -182z m1800
-75 c4 -142 12 -319 17 -393 18 -239 51 -592 64 -685 8 -49 11 -93 7 -97 -3
-4 -31 -11 -61 -17 -284 -49 -470 -89 -700 -149 -127 -34 -306 -87 -419 -126
-88 -31 -97 -31 -104 -8 -3 9 -26 78 -52 152 -25 74 -61 192 -80 261 -104 374
-185 911 -185 1222 l0 97 753 0 754 0 6 -257z m3107 185 c0 -283 -46 -940 -86
-1250 -8 -57 21 -54 -274 -28 -361 31 -581 40 -976 40 -465 0 -667 -10 -1183
-61 -112 -11 -205 -18 -207 -16 -8 7 -54 464 -69 675 -8 112 -17 318 -21 458
l-7 254 1411 0 1412 0 0 -72z m1800 0 c0 -289 -85 -874 -171 -1182 -67 -242
-125 -422 -139 -439 -4 -4 -56 6 -116 23 -317 91 -488 133 -709 175 -71 14
-161 31 -200 40 -38 8 -113 20 -165 26 -52 7 -98 15 -102 18 -3 3 0 53 8 111
33 251 68 719 80 1098 l7 202 754 0 753 0 0 -72z m1145 -25 c-43 -665 -200
-1215 -517 -1813 -33 -63 -98 -170 -102 -170 -1 0 -47 25 -101 55 -118 66
-267 138 -383 185 -64 26 -81 37 -76 49 38 93 121 376 172 586 29 120 34 145
72 350 30 161 70 527 77 703 l6 152 429 0 429 0 -6 -97z m-3724 -1513 c211
-11 359 -22 537 -41 93 -11 102 -14 102 -32 0 -59 -103 -553 -163 -782 -67
-254 -105 -372 -195 -610 -88 -232 -204 -463 -316 -629 -180 -267 -369 -412
-566 -432 -105 -11 -270 49 -375 138 -329 276 -622 903 -819 1753 -40 172
-106 509 -106 542 0 25 -14 22 265 53 99 10 266 24 370 30 105 6 210 12 235
13 117 8 850 6 1031 -3z m1045 -105 c311 -47 627 -116 924 -202 85 -25 163
-48 173 -50 23 -7 21 -15 -79 -218 -218 -446 -444 -767 -773 -1096 -291 -291
-583 -495 -911 -637 -131 -57 -282 -113 -288 -108 -2 3 13 28 34 55 301 388
550 1013 720 1811 18 86 83 440 84 458 0 4 14 2 116 -13z m-3227 -62 c5 -27
19 -102 30 -168 60 -349 185 -823 301 -1140 130 -357 314 -711 458 -883 24
-29 42 -55 40 -57 -2 -3 -47 11 -99 29 -740 267 -1362 842 -1806 1671 -81 151
-147 294 -139 302 7 7 154 56 301 99 282 84 754 189 867 193 36 1 37 0 47 -46z
m4681 -324 c62 -23 358 -167 408 -198 17 -12 32 -25 32 -30 0 -5 -30 -49 -67
-97 -320 -426 -719 -790 -1183 -1079 -140 -88 -476 -262 -486 -253 -2 3 26 29
64 58 109 87 399 385 513 527 93 116 235 314 294 410 106 171 229 399 305 566
29 64 56 117 59 117 3 0 31 -9 61 -21z m-6092 -203 c205 -421 481 -821 776
-1123 71 -73 125 -133 120 -132 -5 0 -29 14 -54 29 -25 16 -57 36 -71 44 -65
37 -282 193 -403 289 -281 223 -518 466 -734 752 l-91 119 67 40 c81 47 283
146 299 146 6 0 47 -74 91 -164z"/>
</g>
</svg>
