<?xml version="1.0" standalone="no"?>
<!DOCTYPE svg PUBLIC "-//W3C//DTD SVG 20010904//EN"
 "http://www.w3.org/TR/2001/REC-SVG-20010904/DTD/svg10.dtd">
<svg version="1.0" xmlns="http://www.w3.org/2000/svg"
 width="1300.000000pt" height="1300.000000pt" viewBox="0 0 1300.000000 1300.000000"
 preserveAspectRatio="xMidYMid meet">

<g transform="translate(0.000000,1300.000000) scale(0.100000,-0.100000)"
fill="#000000" stroke="none">
<path d="M5935 9810 c-853 -48 -1574 -177 -2025 -365 -225 -94 -397 -222 -464
-345 -60 -109 -43 -239 45 -345 l41 -50 -61 -3 -61 -3 0 -714 c0 -694 1 -716
20 -769 12 -29 39 -74 60 -99 22 -25 40 -48 40 -51 0 -3 -27 -6 -60 -6 l-60 0
0 -715 c0 -694 1 -716 20 -769 12 -29 39 -74 60 -99 22 -25 40 -48 40 -51 0
-3 -27 -6 -60 -6 l-60 0 2 -727 3 -728 24 -50 c119 -243 579 -453 1281 -585
543 -101 1068 -144 1775 -144 575 -1 910 19 1370 79 920 121 1531 352 1686
637 l34 63 3 728 3 727 -67 0 -66 0 35 40 c20 21 49 63 64 92 l28 53 3 728 c2
689 1 728 -15 726 -10 0 -40 -1 -67 0 l-48 1 35 40 c20 21 49 63 64 92 l28 53
3 728 3 727 -67 0 -66 0 35 40 c65 71 91 135 92 220 0 94 -25 150 -104 234
-292 308 -1081 520 -2256 606 -194 15 -1083 21 -1290 10z m1202 -166 c753 -45
1356 -149 1798 -309 307 -111 479 -236 492 -359 32 -279 -780 -565 -1907 -670
-372 -35 -505 -41 -1020 -41 -638 0 -970 22 -1480 96 -719 104 -1287 305
-1416 499 -91 137 6 274 281 402 431 200 1164 339 2040 387 231 12 975 10
1212 -5z m-3314 -1128 c341 -162 909 -294 1552 -361 623 -64 1400 -72 2025
-20 602 50 1126 146 1515 276 135 46 350 147 440 207 33 23 61 37 63 32 7 -19
-63 -104 -122 -147 -520 -383 -2188 -593 -3716 -467 -739 61 -1368 199 -1734
382 -102 51 -142 78 -191 126 -34 34 -67 75 -73 93 l-10 31 79 -54 c44 -30
121 -74 172 -98z m16 -269 c691 -327 2206 -485 3581 -371 895 73 1611 254
1948 491 l62 44 0 -560 c0 -632 4 -599 -79 -680 -83 -81 -193 -142 -401 -219
-1063 -397 -3237 -447 -4565 -105 -416 107 -724 258 -790 388 l-25 50 0 562 0
561 83 -56 c45 -30 129 -77 186 -105z m-17 -1370 c546 -260 1553 -417 2673
-417 1283 0 2394 202 2861 520 70 47 73 49 63 23 -88 -231 -762 -464 -1659
-572 -885 -107 -1946 -94 -2779 35 -771 119 -1322 330 -1400 536 -9 25 -4 23
69 -27 44 -30 122 -74 172 -98z m-62 -230 c374 -205 1077 -356 1970 -424 284
-21 1202 -25 1465 -5 1070 80 1783 245 2162 502 l73 50 0 -561 c0 -606 3 -576
-54 -652 -98 -133 -474 -289 -939 -392 -1459 -320 -3687 -211 -4572 225 -194
96 -278 175 -293 276 -4 27 -6 286 -4 576 l2 527 63 -43 c34 -24 91 -59 127
-79z m46 -1401 c419 -208 1078 -341 2019 -408 276 -20 1130 -16 1425 5 999 74
1749 250 2099 494 35 24 66 42 68 39 11 -11 -48 -95 -93 -131 -262 -215 -953
-399 -1799 -479 -361 -34 -528 -41 -1025 -41 -514 0 -680 7 -1070 45 -985 97
-1754 343 -1849 593 -11 27 -9 27 52 -17 35 -25 113 -70 173 -100z m16 -269
c286 -136 761 -260 1233 -322 66 -8 152 -20 190 -25 419 -57 1217 -85 1735
-61 661 31 1188 101 1665 223 291 74 552 179 711 288 l74 50 0 -557 c0 -526
-2 -560 -19 -600 -109 -239 -821 -471 -1757 -572 -417 -46 -609 -55 -1139 -55
-501 -1 -662 6 -1025 40 -690 65 -1273 195 -1635 365 -128 61 -247 162 -274
232 -7 19 -11 218 -11 587 l0 559 80 -54 c44 -30 122 -74 172 -98z"/>
<path d="M8885 7811 c-78 -20 -145 -73 -183 -145 -36 -68 -38 -180 -5 -242 35
-65 70 -101 127 -129 184 -90 396 41 396 245 0 109 -68 215 -162 254 -45 19
-133 28 -173 17z m110 -165 c51 -22 70 -60 66 -133 -1 -30 -53 -79 -91 -87
-43 -8 -95 16 -120 56 -35 58 -21 115 39 155 39 27 59 28 106 9z"/>
<path d="M8115 7646 c-95 -44 -165 -151 -165 -251 0 -60 30 -135 73 -182 55
-60 107 -85 188 -91 56 -4 75 -1 120 20 76 35 114 70 145 135 23 50 26 66 22
134 -4 60 -10 86 -32 124 -29 48 -93 101 -149 122 -56 20 -146 16 -202 -11z
m191 -170 c29 -29 34 -41 34 -81 0 -40 -5 -52 -34 -81 -93 -93 -242 18 -181
136 19 37 59 59 109 60 30 0 45 -7 72 -34z"/>
<path d="M7395 7536 c-173 -80 -219 -296 -92 -434 63 -68 107 -87 202 -87 70
0 87 4 134 30 56 31 106 88 128 148 17 47 15 136 -4 192 -48 142 -229 216
-368 151z m191 -170 c29 -29 34 -41 34 -80 0 -61 -37 -105 -96 -113 -102 -13
-167 87 -114 175 23 38 49 50 104 51 30 1 45 -6 72 -33z"/>
<path d="M8885 6171 c-162 -42 -253 -211 -195 -365 42 -110 137 -177 254 -178
165 -1 284 125 274 289 -5 79 -25 126 -76 178 -64 65 -175 98 -257 76z m109
-165 c45 -19 66 -52 66 -104 0 -55 -21 -86 -70 -106 -111 -44 -209 94 -128
181 40 44 77 52 132 29z"/>
<path d="M8120 6009 c-96 -43 -170 -151 -170 -248 0 -99 65 -207 154 -254 32
-17 58 -22 121 -22 70 0 87 4 133 29 101 56 148 147 140 266 -6 80 -37 141
-95 189 -75 62 -197 79 -283 40z m186 -173 c29 -29 34 -41 34 -80 0 -118 -161
-160 -215 -56 -42 82 13 169 109 170 30 0 45 -7 72 -34z"/>
<path d="M7413 5907 c-99 -37 -171 -130 -180 -236 -7 -79 16 -147 73 -210 128
-143 352 -113 442 58 98 189 -34 403 -247 400 -31 0 -70 -6 -88 -12z m173
-181 c28 -28 34 -41 34 -78 0 -50 -18 -82 -60 -103 -37 -19 -73 -19 -110 0
-54 28 -75 98 -45 155 21 42 53 60 103 60 37 0 50 -6 78 -34z"/>
<path d="M8880 4531 c-131 -43 -204 -138 -204 -266 0 -86 24 -146 83 -203 106
-103 293 -95 392 15 52 58 72 117 67 200 -7 111 -62 194 -156 235 -50 22 -143
32 -182 19z m120 -166 c40 -21 60 -53 60 -98 0 -75 -51 -124 -124 -119 -93 7
-137 121 -74 190 41 43 88 53 138 27z"/>
<path d="M8150 4381 c-122 -37 -195 -137 -194 -266 0 -289 390 -380 517 -121
72 147 0 329 -151 380 -48 17 -129 20 -172 7z m156 -185 c29 -29 34 -41 34
-80 0 -61 -37 -105 -96 -113 -97 -13 -164 80 -119 167 21 42 53 60 103 60 37
0 50 -6 78 -34z"/>
<path d="M7413 4267 c-182 -67 -240 -295 -112 -440 133 -152 371 -115 457 71
21 46 24 65 20 127 -7 111 -62 190 -163 236 -46 21 -152 24 -202 6z m173 -181
c28 -28 34 -42 34 -75 0 -123 -152 -165 -214 -61 -20 35 -20 72 -1 110 21 42
53 60 103 60 37 0 50 -6 78 -34z"/>
</g>
</svg>
