<?xml version="1.0" encoding="UTF-8"?>
<svg version="1.1" xmlns="http://www.w3.org/2000/svg" width="512" height="512">
<path d="M0 0 C11.04011664 8.2601393 19.75952186 19.22516895 25 32 C25.58974609 33.43279297 25.58974609 33.43279297 26.19140625 34.89453125 C32.50420901 53.08508137 30.19104943 73.06608976 22.25 90.25 C16.20478246 101.63012203 7.3429996 110.43253011 -3 118 C-1.47632813 118.70962891 -1.47632813 118.70962891 0.078125 119.43359375 C20.06058865 128.9395302 41.37691104 144.72362793 49.234375 166.40625 C49.48703125 167.2621875 49.7396875 168.118125 50 169 C51.30710938 168.12988281 51.30710938 168.12988281 52.640625 167.2421875 C60.21217291 162.2575317 67.77326213 157.8421578 76 154 C75.154375 153.32195312 74.30875 152.64390625 73.4375 151.9453125 C58.8474377 140.06517171 46.2210794 124.38592602 44 105 C42.50946124 83.99232127 45.91993496 64.48513733 59.92895508 48.09106445 C72.45488949 34.25219462 89.2700607 24.63861525 108.1171875 23.68359375 C128.16125045 23.06637052 146.30733712 27.62284464 161.4375 41.3125 C175.56071034 54.71884337 183.86225593 71.63079359 184.47509766 91.1418457 C184.64904993 111.1071324 178.74361569 128.14066643 165 143 C160.89083701 146.97354705 156.60152299 150.6110405 152 154 C153.03898437 154.49628906 154.07796875 154.99257813 155.1484375 155.50390625 C163.24918403 159.42989185 170.83233607 163.48641236 178 169 C178.26941406 168.11570312 178.53882813 167.23140625 178.81640625 166.3203125 C182.53820555 155.87962139 190.32803721 147.74025141 198 140 C198.87785156 139.10925781 199.75570313 138.21851563 200.66015625 137.30078125 C207.46999884 130.75169846 214.66046209 126.32457475 223 122 C224.59908203 121.14728516 224.59908203 121.14728516 226.23046875 120.27734375 C229 119 229 119 232 119 C232 118.34 232 117.68 232 117 C231.29617188 116.773125 230.59234375 116.54625 229.8671875 116.3125 C226.41531867 114.73235296 223.87025095 112.56229286 221.125 110 C220.5976123 109.50870605 220.07022461 109.01741211 219.52685547 108.51123047 C206.42364698 95.9877031 199.15224016 79.10190598 198.59716797 61.07617188 C198.35940531 41.26484973 203.90793553 23.58868598 217.7253418 9.07885742 C231.85066103 -5.04162851 249.13578454 -12.20102849 269 -12.375 C289.25608162 -12.1603311 305.69415287 -4.64402006 320.32421875 9.19921875 C334.13938698 23.38967168 339.66866307 41.36613658 339.47094727 60.86523438 C338.8591026 79.60033994 331.13199599 96.23539661 317.6328125 109.2890625 C314.21083416 112.37445281 310.71007092 115.2675829 307 118 C307.51796143 118.25579834 308.03592285 118.51159668 308.56958008 118.77514648 C318.9687703 123.95569969 328.49635058 128.97768922 337 137 C338.41539062 138.31484375 338.41539062 138.31484375 339.859375 139.65625 C356.74298069 155.70220624 369.27101737 178.98459987 370.23828125 202.6015625 C370.26855714 204.27595072 370.29317826 205.95044955 370.3125 207.625 C370.34150391 208.470625 370.37050781 209.31625 370.40039062 210.1875 C370.40876953 211.00476563 370.41714844 211.82203125 370.42578125 212.6640625 C370.44036377 213.40092285 370.45494629 214.1377832 370.4699707 214.89697266 C369.78603525 217.95745058 368.4280716 219.05164182 366 221 C363.10273361 221.49219131 363.10273361 221.49219131 359.67254639 221.48101807 C358.37126801 221.48651672 357.06998962 221.49201538 355.72927856 221.49768066 C354.28924192 221.48352487 352.84920899 221.46898564 351.40917969 221.45410156 C349.8913679 221.45297316 348.37355393 221.45360681 346.85574341 221.45587158 C342.73608582 221.45701994 338.61689343 221.43349122 334.49734402 221.40557575 C330.19187715 221.38058226 325.8863998 221.37822172 321.58087158 221.37347412 C313.42814619 221.36103829 305.27563517 221.32820852 297.1230042 221.28807616 C287.84137708 221.24337731 278.55973977 221.22137617 269.27803183 221.20129442 C250.18523298 221.15947638 231.09263372 221.08911257 212 221 C212.20940216 221.88555069 212.41880432 222.77110138 212.634552 223.68348694 C213.04385452 225.43162941 213.04385452 225.43162941 213.46142578 227.21508789 C213.73270294 228.36876358 214.0039801 229.52243927 214.28347778 230.71107483 C215.14467466 234.66407451 215.60669825 238.4007782 215.875 242.4375 C215.97554688 243.73558594 216.07609375 245.03367187 216.1796875 246.37109375 C215.98180388 250.36748246 215.12113419 252.6356173 213 256 C209.94956374 257.52521813 206.76851774 257.14799788 203.42141724 257.14717102 C202.23477362 257.15268605 202.23477362 257.15268605 201.0241574 257.1583125 C198.35870915 257.16937413 195.69329984 257.17319734 193.02783203 257.17700195 C191.12272008 257.18326464 189.21760937 257.18991126 187.3125 257.19691467 C182.12656909 257.21434034 176.94064741 257.22488028 171.75469446 257.2331202 C168.51735809 257.23826608 165.28002461 257.24434193 162.04269028 257.25063133 C151.92140091 257.2696861 141.80011887 257.28391773 131.67881501 257.2922433 C119.98098487 257.30202369 108.28334356 257.32836297 96.58557999 257.36874419 C87.55285386 257.39885981 78.520182 257.41370776 69.48740661 257.41702431 C64.08811887 257.41937964 58.68903279 257.42840277 53.28979874 257.45348549 C48.21234172 257.47669221 43.13522021 257.48102936 38.057724 257.47072411 C36.19204978 257.47022686 34.32635947 257.47660262 32.46073532 257.49028015 C29.91760029 257.5078847 27.37568434 257.50095018 24.83255005 257.48774719 C23.7198075 257.50420106 23.7198075 257.50420106 22.58458531 257.52098733 C19.19889148 257.47842049 17.31841144 257.23472218 14.56051445 255.20169353 C10.73874573 249.80964896 11.98699399 242.64283427 12.8125 236.4375 C12.89564453 235.72142578 12.97878906 235.00535156 13.06445312 234.26757812 C13.63610644 229.68183369 14.71155487 225.44870984 16 221 C15.2100124 221.00368717 14.4200248 221.00737434 13.60609818 221.01117325 C-5.60591861 221.09946674 -24.81789496 221.16568155 -44.03007126 221.20724869 C-53.32090282 221.22788396 -62.61159905 221.25602295 -71.90234375 221.30175781 C-79.99908705 221.34159609 -88.09573235 221.36742579 -96.19257092 221.37635398 C-100.48080655 221.38157386 -104.76876179 221.39386229 -109.05690765 221.42292023 C-113.09195868 221.45004194 -117.12661346 221.45845167 -121.16174698 221.45243073 C-122.64364143 221.45353243 -124.12554894 221.46150592 -125.60736465 221.4768219 C-127.62899471 221.49669486 -129.65083671 221.48956096 -131.67254639 221.48101807 C-133.37048906 221.48654882 -133.37048906 221.48654882 -135.10273361 221.49219131 C-138.68124213 220.88426972 -139.85842975 219.89047324 -142 217 C-142.38176229 214.07515981 -142.52260859 211.60109171 -142.4375 208.6875 C-142.42283691 207.88787842 -142.40817383 207.08825684 -142.39306641 206.2644043 C-141.56974498 179.84732361 -128.80952598 155.85815503 -110.015625 137.66796875 C-102.1023877 130.48773053 -88.96857742 119 -78 119 C-78 118.34 -78 117.68 -78 117 C-78.71671875 116.75894531 -79.4334375 116.51789063 -80.171875 116.26953125 C-92.59228616 110.69407044 -101.98867855 95.87289291 -107.00390625 83.77734375 C-113.69133033 65.13123189 -112.84374063 45.48468449 -104.62182617 27.48828125 C-96.50471025 10.72215214 -82.81278148 -1.81834035 -65.38671875 -8.35546875 C-62.27082319 -9.33293542 -59.17247763 -10.22760861 -56 -11 C-55.24460937 -11.19078125 -54.48921875 -11.3815625 -53.7109375 -11.578125 C-34.75723079 -14.52769319 -15.85220779 -10.82503376 0 0 Z M-62 9 C-62.73605469 9.27714844 -63.47210938 9.55429688 -64.23046875 9.83984375 C-76.41142333 15.11582607 -86.00447358 27.00719368 -91 39 C-95.72267616 51.03337884 -95.61900717 64.86072967 -91.3359375 76.99609375 C-85.29165404 90.58689485 -75.42973544 101.26978541 -61.84765625 107.4296875 C-47.85241664 112.57692999 -32.83379333 113.03011504 -19 107 C-3.84960646 99.50044714 5.54606033 87.93361713 11 72 C14.37002645 59.22824371 12.61636017 44.40798778 6.31640625 32.93359375 C-2.59224005 18.54565102 -13.86230437 9.55160911 -30.41015625 5.39453125 C-41.53194444 3.70026186 -51.57776345 4.86281896 -62 9 Z M228.71875 22.55859375 C218.20916415 36.19515145 214.6584365 49.97639998 216 67 C218.5614548 80.94895099 226.30904183 93.19137607 237.625 101.6875 C243.32789648 105.50984013 249.50107775 107.86891709 256 110 C256.62003906 110.20367187 257.24007812 110.40734375 257.87890625 110.6171875 C273.13038273 113.369756 287.69401306 109.69571065 300.53125 101.35546875 C312.11313774 92.86565906 319.72677263 80.18160192 322 66 C323.07663797 50.04457829 319.88712169 35.89623358 309.73046875 23.15234375 C300.23310366 12.80064297 287.29557405 5.91280347 273.2109375 4.6640625 C256.07265616 4.48953825 240.46276869 9.38679197 228.71875 22.55859375 Z M75 57 C63.60220933 70.90604234 59.62689801 85.17268705 61 103 C63.63328733 117.97483879 72.5859238 129.99148809 84.625 138.84375 C96.55027843 146.85910107 111.17563805 148.70981837 125.140625 146.50390625 C140.09838532 142.72172971 151.79239424 134.29254967 160.0859375 121.328125 C167.18485636 108.98469874 168.80112313 95.24253151 166.3515625 81.3125 C161.98736761 65.79536261 151.85612948 53.92575386 138 46 C115.54193573 35.81455821 93.12454475 40.78079504 75 57 Z M-104.359375 156.12109375 C-115.42357488 168.79223694 -125 186.8114069 -125 204 C-105.84183601 204.3039249 -86.68416222 204.53304082 -67.524086 204.67355824 C-58.62721593 204.74054351 -49.73184507 204.83182928 -40.8359375 204.98071289 C-33.08047654 205.11044769 -25.32610124 205.194192 -17.56958532 205.22315043 C-13.46330166 205.24007606 -9.36012312 205.27972 -5.25483704 205.37449074 C-1.3861669 205.46307152 2.47813698 205.48989443 6.34772491 205.47039986 C7.76365711 205.47396258 9.17974234 205.49965094 10.59479523 205.54967117 C15.02534471 205.69853899 18.83981713 205.59190121 23 204 C26.58574743 200.00332545 28.62812182 195.81623163 31 191 C32.60678711 188.85314576 34.28252711 186.87592419 36.06640625 184.87890625 C37.52627062 181.94085285 36.86319874 180.11963053 36 177 C34.80772533 174.52765845 33.60869002 172.267946 32.1875 169.9375 C31.79224121 169.28773193 31.39698242 168.63796387 30.98974609 167.96850586 C18.51325324 148.20083712 -1.04999305 135.05669715 -23.6640625 129.67578125 C-27.79249242 128.83945997 -31.7912709 128.18127485 -36 128 C-37.12535156 127.94005859 -37.12535156 127.94005859 -38.2734375 127.87890625 C-63.62104782 127.18164189 -86.97832236 137.96845232 -104.359375 156.12109375 Z M205.9375 156.0625 C202.1195146 160.38793915 198.93458763 164.90152935 195.9375 169.8125 C195.3640686 170.74557983 195.3640686 170.74557983 194.77905273 171.69750977 C192.5955097 175.4359318 190.99414761 178.63412058 191 183 C192.6574062 186.01097485 192.6574062 186.01097485 195.125 188.8125 C199.24306566 193.81493714 201.71576199 198.08837159 205 204 C253.84 204 302.68 204 353 204 C350.80505027 182.05050267 340.76068631 162.63511071 324 148 C310.02541432 136.65378146 292.10540924 128.779821 274 128 C272.87464844 127.94005859 272.87464844 127.94005859 271.7265625 127.87890625 C246.22995585 127.17754328 223.39888286 137.93055713 205.9375 156.0625 Z M50.60546875 192.15625 C39.54701765 204.85597973 30 222.85060773 30 240 C85.44 240 140.88 240 198 240 C195.80505027 218.05050267 185.76068631 198.63511071 169 184 C132.91025716 154.69808589 82.58038134 158.7382891 50.60546875 192.15625 Z " fill="#6C41FF" transform="translate(142,196)"/>
<path d="M0 0 C11.57398418 3.92566212 22.15860226 8.78958933 32.18359375 15.80322266 C34.83548477 17.40297777 34.83548477 17.40297777 37.41796875 16.56103516 C40.40526876 14.85334902 43.37913158 13.13533692 46.328125 11.36181641 C56.21995672 5.59430896 66.64745348 1.6834827 77.578125 -1.63818359 C78.22177002 -1.83694092 78.86541504 -2.03569824 79.52856445 -2.24047852 C90.48876781 -5.41965972 101.5893466 -6.25051494 112.953125 -6.26318359 C114.14035156 -6.28767578 115.32757813 -6.31216797 116.55078125 -6.33740234 C118.26587891 -6.34320313 118.26587891 -6.34320313 120.015625 -6.34912109 C121.03785156 -6.35733887 122.06007813 -6.36555664 123.11328125 -6.37402344 C126.69082311 -5.76197836 128.35713172 -4.37138304 130.953125 -1.88818359 C132.634876 1.47531841 132.11873348 5.27997027 132.13012695 8.98022461 C132.13669815 9.8990744 132.14326935 10.81792419 132.15003967 11.76461792 C132.16979605 14.81394527 132.18144018 17.86322333 132.19140625 20.91259766 C132.19548178 21.95261618 132.1995573 22.9926347 132.20375633 24.06416893 C132.22462658 29.56824928 132.23892444 35.07230463 132.24829102 40.57641602 C132.25936034 46.26625296 132.29376375 51.95569935 132.33346272 57.64539814 C132.35958686 62.01627844 132.3679791 66.38706508 132.37157249 70.75801659 C132.37644894 72.85559923 132.38809289 74.9531774 132.40661049 77.05068398 C132.43091337 79.98584719 132.43005305 82.91999194 132.4230957 85.85522461 C132.44231079 87.15602715 132.44231079 87.15602715 132.46191406 88.48310852 C132.42728036 92.48986865 132.24242058 94.62384022 130.15812683 98.13957214 C127.21526902 100.77178512 124.82319105 100.88854336 120.953125 101.11181641 C120.97407227 101.9996582 120.99501953 102.8875 121.01660156 103.80224609 C121.08488177 107.10476096 121.1349737 110.4065231 121.17285156 113.70947266 C121.19293482 115.13732762 121.22020752 116.56510065 121.25488281 117.99267578 C121.30355169 120.04822009 121.32612467 122.10267496 121.34375 124.15869141 C121.36469727 125.39458008 121.38564453 126.63046875 121.40722656 127.90380859 C120.87026417 131.69718805 119.93525044 132.80070385 116.953125 135.11181641 C114.16204142 136.50735819 111.87190522 136.24422529 108.74797058 136.2522583 C108.10458829 136.25522942 107.46120599 136.25820055 106.79832727 136.2612617 C104.63270972 136.26996456 102.46714734 136.27145828 100.30151367 136.27294922 C98.7526996 136.2775763 97.20388667 136.28260081 95.65507507 136.28799438 C91.44011661 136.30113162 87.22517409 136.307566 83.01019835 136.31200504 C80.37789873 136.31493383 77.74560348 136.31903829 75.11330605 136.32350922 C66.88054397 136.33718807 58.64779187 136.34685264 50.41501921 136.35071111 C40.90589142 136.35519199 31.39690736 136.37273961 21.88782328 136.4017117 C14.54169042 136.42331806 7.19559803 136.43341484 -0.15056628 136.43475223 C-4.53990014 136.43580107 -8.92909897 136.44172563 -13.31839943 136.45957184 C-17.44783662 136.47603433 -21.577037 136.47821696 -25.70649529 136.46943283 C-27.22181965 136.46866146 -28.73715664 136.47301842 -30.25244904 136.48289108 C-32.32217186 136.49558468 -34.39105272 136.48974878 -36.46076965 136.47930908 C-37.61870938 136.48077564 -38.77664911 136.4822422 -39.96967793 136.4837532 C-43.40467631 136.06856943 -45.28836648 135.1664368 -48.046875 133.11181641 C-49.50786345 130.18983951 -49.15822401 127.61288165 -49.14453125 124.35400391 C-49.1431163 123.69095245 -49.14170135 123.027901 -49.14024353 122.34475708 C-49.13464254 120.22539778 -49.12209 118.10614382 -49.109375 115.98681641 C-49.10436012 114.55062001 -49.09979719 113.11442197 -49.09570312 111.67822266 C-49.08467282 108.15605296 -49.06740759 104.63394496 -49.046875 101.11181641 C-50.119375 101.04994141 -51.191875 100.98806641 -52.296875 100.92431641 C-56.046875 100.11181641 -56.046875 100.11181641 -58.24890137 98.13659668 C-60.72093425 93.97782807 -60.6090865 90.65720225 -60.56445312 85.90283203 C-60.5714624 84.98354416 -60.57847168 84.06425629 -60.58569336 83.11711121 C-60.6032728 80.08378738 -60.59165059 77.05139943 -60.578125 74.01806641 C-60.58081992 71.90726543 -60.58470235 69.79646567 -60.58972168 67.68566895 C-60.59561667 63.26395843 -60.58705354 58.84257134 -60.56835938 54.42089844 C-60.54557007 48.75460312 -60.55869311 43.08906567 -60.58264923 37.42279816 C-60.59710703 33.06474096 -60.59250124 28.70686328 -60.58213806 24.34880066 C-60.57947074 22.25961721 -60.58274072 20.17041743 -60.59205627 18.08125305 C-60.60222133 15.16066346 -60.586721 12.24129917 -60.56445312 9.32080078 C-60.57659851 8.02706795 -60.57659851 8.02706795 -60.58898926 6.7071991 C-60.53164881 2.64537043 -60.36229209 0.61008457 -58.13952637 -2.90124512 C-46.74538689 -13.71979545 -13.80330308 -4.43920205 0 0 Z M-43.046875 11.11181641 C-43.06999984 20.61255966 -43.0877908 30.11329329 -43.09868717 39.61405849 C-43.10391569 44.02518645 -43.11101277 48.43629521 -43.12231445 52.84741211 C-43.13314444 57.10082756 -43.13915207 61.3542245 -43.14175224 65.60765266 C-43.14360629 67.23403274 -43.14722652 68.86041175 -43.15260506 70.48678398 C-43.15981698 72.75691834 -43.16086588 75.02697526 -43.16040039 77.29711914 C-43.162621 78.59173569 -43.16484161 79.88635223 -43.16712952 81.22019958 C-43.37815612 84.00624023 -43.37815612 84.00624023 -42.046875 85.11181641 C-40.51818523 85.40893619 -38.97905596 85.65267817 -37.4375 85.87353516 C17.50830296 94.13089099 17.50830296 94.13089099 32.46484375 111.90869141 C33.95238965 113.38450552 33.95238965 113.38450552 36.40234375 112.99072266 C39.16122122 112.04011403 40.60167592 110.98408962 42.765625 109.04931641 C61.15067667 94.24419229 87.67680887 88.17256823 110.6015625 85.53759766 C113.78878795 85.48027164 113.78878795 85.48027164 114.953125 84.11181641 C115.04752478 81.84189754 115.07054726 79.56899673 115.06665039 77.29711914 C115.06686943 76.22888412 115.06686943 76.22888412 115.0670929 75.1390686 C115.0663937 72.77448528 115.05860106 70.40997979 115.05078125 68.04541016 C115.04891709 66.41016177 115.04749318 64.77491284 115.04649353 63.1396637 C115.04266818 58.82746855 115.03283775 54.51530688 115.02178955 50.203125 C115.0115758 45.80615695 115.00699599 41.40918351 115.00195312 37.01220703 C114.99121549 28.3787281 114.97413887 19.74527641 114.953125 11.11181641 C112.89236661 11.09376431 110.83156194 11.08095141 108.77075195 11.0703125 C107.62314896 11.06260834 106.47554596 11.05490417 105.29316711 11.04696655 C100.78017402 11.13459028 96.54376845 11.79202335 92.140625 12.73681641 C91.28879639 12.91575439 90.43696777 13.09469238 89.55932617 13.27905273 C73.70681787 16.78949424 57.07864399 23.37201737 44.328125 33.61181641 C40.93899883 36.31405955 38.40564599 37.27372626 33.953125 37.11181641 C31.35137841 35.91501298 29.3065345 34.70101913 26.953125 33.11181641 C7.69344602 20.71909818 -13.52571298 10.90524339 -36.90625 11.06884766 C-38.06092773 11.07505127 -39.21560547 11.08125488 -40.40527344 11.08764648 C-41.27700195 11.09562256 -42.14873047 11.10359863 -43.046875 11.11181641 Z M-32.046875 103.11181641 C-32.046875 108.39181641 -32.046875 113.67181641 -32.046875 119.11181641 C-17.196875 119.11181641 -2.346875 119.11181641 12.953125 119.11181641 C0.85241793 109.43125075 -16.8862029 105.27762671 -32.046875 103.11181641 Z M57.953125 118.11181641 C57.953125 118.44181641 57.953125 118.77181641 57.953125 119.11181641 C73.133125 119.11181641 88.313125 119.11181641 103.953125 119.11181641 C103.953125 113.83181641 103.953125 108.55181641 103.953125 103.11181641 C88.59576 103.11181641 71.23368323 111.06498959 57.953125 118.11181641 Z " fill="#733CFF" transform="translate(220.046875,64.88818359375)"/>
<path d="M0 0 C3.0748959 3.07508984 3.38125485 5.455612 3.40405273 9.71484375 C3.41673691 10.86283447 3.42942108 12.0108252 3.44248962 13.19360352 C3.43955399 14.42908936 3.43661835 15.6645752 3.43359375 16.9375 C3.4388356 18.20972412 3.44407745 19.48194824 3.44947815 20.79272461 C3.45590248 23.48289931 3.45599457 26.17222598 3.44604492 28.86230469 C3.43454795 32.30590286 3.45477938 35.74847669 3.48396206 39.19194031 C3.50673864 42.48213219 3.4998573 45.77224773 3.49609375 49.0625 C3.51294472 50.91572876 3.51294472 50.91572876 3.53013611 52.80639648 C3.51606468 54.52838257 3.51606468 54.52838257 3.50170898 56.28515625 C3.50154282 57.29457275 3.50137665 58.30398926 3.50120544 59.34399414 C2.86516016 62.71454814 1.6390432 63.87910287 -1 66 C-4.48964271 67.37749054 -5.72477566 67.11114829 -9.25 65.6875 C-12 64 -12 64 -13 62 C-13.10622359 60.17303274 -13.14880828 58.34221822 -13.16113281 56.51220703 C-13.17074036 55.36406525 -13.1803479 54.21592346 -13.19024658 53.0329895 C-13.19449646 51.78718109 -13.19874634 50.54137268 -13.203125 49.2578125 C-13.20882507 47.98275848 -13.21452515 46.70770447 -13.22039795 45.39401245 C-13.22985862 42.69216337 -13.23674999 39.99042566 -13.24023438 37.28857422 C-13.24571733 33.82943832 -13.2697411 30.37069642 -13.29820633 26.91168404 C-13.32133059 23.61042333 -13.32328232 20.30914288 -13.328125 17.0078125 C-13.3404718 15.76605255 -13.3528186 14.5242926 -13.36553955 13.24490356 C-13.36253845 12.09045746 -13.35953735 10.93601135 -13.35644531 9.74658203 C-13.36191376 8.22340866 -13.36191376 8.22340866 -13.36749268 6.66946411 C-12.94075917 3.56967503 -12.17352239 2.22327369 -10 0 C-6.20519658 -1.26493447 -3.87641726 -0.89988258 0 0 Z " fill="#753BFF" transform="translate(261,108)"/>
</svg>
